<svg id="Calque_1" data-name="Calque 1" xmlns="http://www.w3.org/2000/svg" viewBox="0 0 510.04 511.04"><defs><style>.cls-1{fill:none;stroke:#1d1d1b;stroke-linecap:round;stroke-linejoin:round;stroke-width:30px;}</style></defs><g id="Icon-5"><path id="Path-8" class="cls-1" d="M496.6,375.61V448a48.29,48.29,0,0,1-48.07,48.5c-1.53,0-3-.06-4.57-.2a477.64,477.64,0,0,1-208.32-74.18A470.41,470.41,0,0,1,90.81,277.32a477.68,477.68,0,0,1-74-209.21A48.28,48.28,0,0,1,60.53,15.69c1.41-.13,2.83-.19,4.25-.19H137.2A48.26,48.26,0,0,1,185.48,57a309.67,309.67,0,0,0,16.88,67.84,48.24,48.24,0,0,1-10.86,50.92l-30.64,30.65A385.77,385.77,0,0,0,305.69,351.24l30.64-30.65a48.26,48.26,0,0,1,50.92-10.86,309.1,309.1,0,0,0,67.84,16.88A48.29,48.29,0,0,1,496.6,375.61Z" transform="translate(-1.57 -0.49)"/></g></svg>