<svg id="Calque_1" data-name="Calque 1" xmlns="http://www.w3.org/2000/svg" viewBox="0 0 511.07 368"><defs><style>.cls-1{fill:none;stroke:#1d1d1b;stroke-linecap:round;stroke-linejoin:round;stroke-width:30px;}</style></defs><g id="Icon-2"><path id="Path-3" class="cls-1" d="M486.33,143a60.78,60.78,0,0,0-42.39-43.73c-37.63-9.19-188-9.19-188-9.19s-150.42,0-188,10.08a60.76,60.76,0,0,0-42.39,43.7A632.61,632.61,0,0,0,15.37,259.59,632.28,632.28,0,0,0,25.45,376.11,60.76,60.76,0,0,0,67.84,418c37.63,10.08,188,10.08,188,10.08s150.42,0,188.05-10.08a60.77,60.77,0,0,0,42.39-43.72,633,633,0,0,0,10.08-114.79A632.94,632.94,0,0,0,486.33,143Z" transform="translate(-0.35 -75.07)"/><path id="Path-4" class="cls-1" d="M206.7,331l125.72-71.44L206.7,188Z" transform="translate(-0.35 -75.07)"/></g></svg>